<?xml version="1.0" encoding="UTF-8" standalone="no"?>
<!DOCTYPE svg PUBLIC "-//W3C//DTD SVG 1.1//EN" "http://www.w3.org/Graphics/SVG/1.1/DTD/svg11.dtd">
<svg width="100%" height="100%" viewBox="0 0 1000 1000" version="1.1" xmlns="http://www.w3.org/2000/svg" xmlns:xlink="http://www.w3.org/1999/xlink" xml:space="preserve" xmlns:serif="http://www.serif.com/" style="fill-rule:evenodd;clip-rule:evenodd;stroke-linejoin:round;stroke-miterlimit:2;">
    <path d="M500,-0C775.958,-0 1000,224.042 1000,500C1000,775.958 775.958,1000 500,1000C224.042,1000 0,775.958 0,500C0,224.042 224.042,-0 500,-0ZM680.681,562.515L680.681,751.7C680.681,759.657 683.068,766.023 687.842,770.797C692.617,775.572 699.082,777.959 707.238,777.959C710.819,777.959 714.4,777.312 717.981,776.019C721.561,774.726 724.744,772.886 727.529,770.499L840.324,677.398C847.088,671.828 850.47,665.164 850.47,657.406C850.47,649.647 847.088,642.983 840.324,637.413L727.529,543.715C724.744,541.328 721.561,539.488 717.981,538.195C714.4,536.902 710.819,536.255 707.238,536.255C699.082,536.255 692.617,538.643 687.842,543.417C683.068,548.191 680.681,554.557 680.681,562.515ZM680.681,312.755L680.681,437.485C680.681,445.443 683.068,451.809 687.842,456.583C692.617,461.357 699.082,463.745 707.238,463.745C710.819,463.745 714.4,463.098 717.981,461.805C721.561,460.512 724.744,458.672 727.529,456.285L840.324,363.184C847.088,357.614 850.47,350.95 850.47,343.191C850.47,335.433 847.088,328.769 840.324,323.199L727.529,229.501C724.744,227.114 721.561,225.274 717.981,223.981C714.4,222.688 710.819,222.041 707.238,222.041C699.082,222.041 692.617,224.428 687.842,229.203C683.068,233.977 680.681,240.343 680.681,248.3L680.681,312.755L625.775,312.755C599.715,312.755 577.882,317.081 560.277,325.735C542.671,334.389 524.618,349.557 506.117,371.241L439.182,449.332L481.915,499.105L439.182,548.878L506.117,626.969C524.618,648.652 542.671,663.821 560.277,672.475C577.882,681.128 599.715,685.455 625.775,685.455L680.681,685.455L680.681,620.404L627.566,620.404C612.049,620.404 598.82,617.619 587.879,612.049C576.937,606.479 565.399,596.532 553.264,582.209L481.915,499.105L553.264,416.001C561.42,406.452 569.179,398.892 576.539,393.322C583.9,387.752 591.658,383.724 599.814,381.237C607.971,378.751 617.221,377.507 627.566,377.507L680.681,377.507L680.681,312.755ZM439.182,449.332L372.136,371.241C353.635,349.557 335.532,334.389 317.827,325.735C300.122,317.081 278.339,312.755 252.478,312.755L184.741,312.755C174.198,312.755 165.694,315.788 159.228,321.856C152.763,327.923 149.53,335.731 149.53,345.28C149.53,354.829 152.763,362.637 159.228,368.704C165.694,374.772 174.198,377.806 184.741,377.806L253.97,377.806C268.293,377.806 280.726,380.591 291.27,386.161C301.813,391.731 313.152,401.678 325.287,416.001L396.519,499.105L325.287,582.209C312.954,596.333 301.565,606.23 291.121,611.9C280.677,617.569 268.293,620.404 253.97,620.404L184.741,620.404C174.198,620.404 165.694,623.438 159.228,629.505C152.763,635.573 149.53,643.381 149.53,652.93C149.53,662.478 152.763,670.237 159.228,676.205C165.694,682.173 174.198,685.157 184.741,685.157L252.478,685.157C278.339,685.157 300.122,680.83 317.827,672.176C335.532,663.523 353.635,648.454 372.136,626.969L439.182,548.878L396.519,499.105L439.182,449.332Z" style="fill:white;"/>
</svg>
